<svg xmlns="http://www.w3.org/2000/svg" width="512" height="512" viewBox="0 0 512 512">
  <defs>
    <linearGradient id="coral" x1="0" y1="0" x2="0" y2="1">
      <stop offset="0" stop-color="#FF8266"/>
      <stop offset="1" stop-color="#EF5238"/>
    </linearGradient>
    <radialGradient id="glow" cx="0.35" cy="0.28" r="0.8">
      <stop offset="0" stop-color="#ffffff" stop-opacity="0.28"/>
      <stop offset="1" stop-color="#ffffff" stop-opacity="0"/>
    </radialGradient>
  </defs>
  <rect width="512" height="512" rx="112" fill="url(#coral)"/><rect width="512" height="512" rx="112" fill="url(#glow)"/>
  <!-- fish body -->
  <g transform="translate(6 0)">
    <path d="M150 256 C150 196 210 150 286 150 C360 150 416 196 416 256 C416 316 360 362 286 362 C210 362 150 316 150 256 Z" fill="#FFF3EC"/>
    <!-- tail -->
    <path d="M150 256 L92 200 C104 236 104 276 92 312 Z" fill="#FFF3EC"/>
    <!-- flesh striations -->
    <path d="M214 205 C250 235 250 277 214 307" fill="none" stroke="#F5714F" stroke-width="14" stroke-linecap="round" opacity="0.8"/>
    <path d="M266 198 C304 232 304 280 266 314" fill="none" stroke="#F5714F" stroke-width="14" stroke-linecap="round" opacity="0.7"/>
    <path d="M318 205 C352 236 352 276 318 307" fill="none" stroke="#F5714F" stroke-width="14" stroke-linecap="round" opacity="0.6"/>
    <!-- eye -->
    <circle cx="372" cy="238" r="13" fill="#3A2016"/>
  </g>
</svg>